<svg xmlns="http://www.w3.org/2000/svg" xmlns:xlink="http://www.w3.org/1999/xlink" version="1.1" data-diagram-type="DESCRIPTION" style="width:912px;height:1891px;background:#FFFFFF;" width="912px" height="1891px" viewBox="0 0 912 1891" zoomAndPan="magnify" preserveAspectRatio="none" contentStyleType="text/css"><?plantuml 1.2026.7beta5?><defs/><g font-family="sans-serif" lengthAdjust="spacing"><!--cluster Module Utilisateurs--><g class="cluster" data-qualified-name="Module Utilisateurs" id="ent0004" data-source-line="16"><rect x="207.6" y="148.44" width="691.04" height="1660" fill="none" style="stroke:#181818;stroke-width:1;" rx="2.5" ry="2.5"/><text x="475.953" y="163.435" fill="#000" font-size="14" textLength="154.335" font-weight="700">Module Utilisateurs</text></g><!--cluster Authentification--><g class="cluster" data-qualified-name="Module Utilisateurs.Authentification" id="ent0005" data-source-line="19"><rect x="265.64" y="191.44" width="174.6" height="150" fill="none" style="stroke:#181818;stroke-width:1;" rx="2.5" ry="2.5"/><text x="288.877" y="206.435" fill="#000" font-size="14" textLength="128.126" font-weight="700">Authentification</text></g><!--cluster Gestion du profil--><g class="cluster" data-qualified-name="Module Utilisateurs.Gestion du profil" id="ent0008" data-source-line="25"><rect x="231.6" y="365.44" width="626.83" height="133" fill="none" style="stroke:#181818;stroke-width:1;" rx="2.5" ry="2.5"/><text x="478.833" y="380.435" fill="#000" font-size="14" textLength="132.364" font-weight="700">Gestion du profil</text></g><!--cluster Gestion des groupes--><g class="cluster" data-qualified-name="Module Utilisateurs.Gestion des groupes" id="ent0011" data-source-line="31"><rect x="248.84" y="736.44" width="208.19" height="303" fill="none" style="stroke:#181818;stroke-width:1;" rx="2.5" ry="2.5"/><text x="271.758" y="751.435" fill="#000" font-size="14" textLength="162.354" font-weight="700">Gestion des groupes</text></g><!--cluster Gestion des droits--><g class="cluster" data-qualified-name="Module Utilisateurs.Gestion des droits" id="ent0016" data-source-line="39"><rect x="257.57" y="1063.44" width="190.73" height="226" fill="none" style="stroke:#181818;stroke-width:1;" rx="2.5" ry="2.5"/><text x="280.754" y="1078.435" fill="#000" font-size="14" textLength="144.361" font-weight="700">Gestion des droits</text></g><!--cluster Gestion des utilisateurs--><g class="cluster" data-qualified-name="Module Utilisateurs.Gestion des utilisateurs" id="ent0020" data-source-line="46"><rect x="238.65" y="1313.44" width="228.58" height="471" fill="none" style="stroke:#181818;stroke-width:1;" rx="2.5" ry="2.5"/><text x="258.83" y="1328.435" fill="#000" font-size="14" textLength="188.221" font-weight="700">Gestion des utilisateurs</text></g><!--cluster Journal d'audit--><g class="cluster" data-qualified-name="Module Utilisateurs.Journal d.audit" id="ent0027" data-source-line="56"><rect x="257.21" y="522.44" width="617.43" height="190" fill="none" style="stroke:#181818;stroke-width:1;" rx="2.5" ry="2.5"/><text x="507.915" y="537.435" fill="#000" font-size="14" textLength="116.02" font-weight="700">Journal d'audit</text></g><!--entity UC01--><g class="entity" data-qualified-name="Module Utilisateurs.Authentification.UC01" id="ent0006" data-source-line="20"><ellipse cx="352.936" cy="241.439" rx="64.496" ry="15.299" fill="#FFF9C4" style="stroke:#F9A825;stroke-width:0.5;"/><text x="306.872" y="246.088" fill="#000" font-size="14" textLength="92.128">Se connecter</text></g><!--entity UC02--><g class="entity" data-qualified-name="Module Utilisateurs.Authentification.UC02" id="ent0007" data-source-line="21"><ellipse cx="352.937" cy="308.439" rx="71.297" ry="16.659" fill="#FFF9C4" style="stroke:#F9A825;stroke-width:0.5;"/><text x="298.123" y="313.088" fill="#000" font-size="14" textLength="109.628">Se déconnecter</text></g><!--entity UC03--><g class="entity" data-qualified-name="Module Utilisateurs.Gestion du profil.UC03" id="ent0009" data-source-line="26"><ellipse cx="775.961" cy="432.444" rx="66.471" ry="15.694" fill="#FFF9C4" style="stroke:#F9A825;stroke-width:0.5;"/><text x="727.292" y="437.093" fill="#000" font-size="14" textLength="97.337">Voir son profil</text></g><!--entity UC04--><g class="entity" data-qualified-name="Module Utilisateurs.Gestion du profil.UC04" id="ent0010" data-source-line="27"><ellipse cx="352.944" cy="435.437" rx="105.334" ry="23.467" fill="#FFF9C4" style="stroke:#F9A825;stroke-width:0.5;"/><text x="259.07" y="440.085" fill="#000" font-size="14" textLength="187.749">Changer son mot de passe</text></g><!--entity UC05--><g class="entity" data-qualified-name="Module Utilisateurs.Gestion des groupes.UC05" id="ent0012" data-source-line="32"><ellipse cx="352.936" cy="931.443" rx="73.366" ry="17.073" fill="#FFF9C4" style="stroke:#F9A825;stroke-width:0.5;"/><text x="295.565" y="936.092" fill="#000" font-size="14" textLength="114.741">Créer un groupe</text></g><!--entity UC06--><g class="entity" data-qualified-name="Module Utilisateurs.Gestion des groupes.UC06" id="ent0013" data-source-line="33"><ellipse cx="352.938" cy="860.444" rx="80.918" ry="18.584" fill="#FFF9C4" style="stroke:#F9A825;stroke-width:0.5;"/><text x="286.52" y="865.092" fill="#000" font-size="14" textLength="132.836">Modifier un groupe</text></g><!--entity UC07--><g class="entity" data-qualified-name="Module Utilisateurs.Gestion des groupes.UC07" id="ent0014" data-source-line="34"><ellipse cx="352.944" cy="1003.439" rx="88.094" ry="20.019" fill="#FFF9C4" style="stroke:#F9A825;stroke-width:0.5;"/><text x="278.237" y="1008.087" fill="#000" font-size="14" textLength="149.413">Supprimer un groupe</text></g><!--entity UC08--><g class="entity" data-qualified-name="Module Utilisateurs.Gestion des groupes.UC08" id="ent0015" data-source-line="35"><ellipse cx="352.942" cy="789.442" rx="77.362" ry="17.872" fill="#FFF9C4" style="stroke:#F9A825;stroke-width:0.5;"/><text x="290.735" y="794.091" fill="#000" font-size="14" textLength="124.414">Lister les groupes</text></g><!--entity UC09--><g class="entity" data-qualified-name="Module Utilisateurs.Gestion des droits.UC09" id="ent0017" data-source-line="40"><ellipse cx="352.944" cy="1114.443" rx="70.414" ry="16.483" fill="#FFF9C4" style="stroke:#F9A825;stroke-width:0.5;"/><text x="299.234" y="1119.091" fill="#000" font-size="14" textLength="107.42">Lister les droits</text></g><!--entity UC10--><g class="entity" data-qualified-name="Module Utilisateurs.Gestion des droits.UC10" id="ent0018" data-source-line="41"><ellipse cx="352.936" cy="1184.443" rx="79.366" ry="18.273" fill="#FFF9C4" style="stroke:#F9A825;stroke-width:0.5;"/><text x="288.346" y="1189.092" fill="#000" font-size="14" textLength="129.179">Affecter des droits</text></g><!--entity UC11--><g class="entity" data-qualified-name="Module Utilisateurs.Gestion des droits.UC11" id="ent0019" data-source-line="42"><ellipse cx="352.944" cy="1255.443" rx="76.114" ry="17.623" fill="#FFF9C4" style="stroke:#F9A825;stroke-width:0.5;"/><text x="292.234" y="1260.091" fill="#000" font-size="14" textLength="121.42">Retirer des droits</text></g><!--entity UC12--><g class="entity" data-qualified-name="Module Utilisateurs.Gestion des utilisateurs.UC12" id="ent0021" data-source-line="47"><ellipse cx="352.944" cy="1670.437" rx="82.184" ry="18.837" fill="#FFF9C4" style="stroke:#F9A825;stroke-width:0.5;"/><text x="285.046" y="1675.085" fill="#000" font-size="14" textLength="135.796">Créer un utilisateur</text></g><!--entity UC13--><g class="entity" data-qualified-name="Module Utilisateurs.Gestion des utilisateurs.UC13" id="ent0022" data-source-line="48"><ellipse cx="352.936" cy="1596.443" rx="90.066" ry="20.413" fill="#FFF9C4" style="stroke:#F9A825;stroke-width:0.5;"/><text x="275.991" y="1601.092" fill="#000" font-size="14" textLength="153.891">Modifier un utilisateur</text></g><!--entity UC14--><g class="entity" data-qualified-name="Module Utilisateurs.Gestion des utilisateurs.UC14" id="ent0023" data-source-line="49"><ellipse cx="352.941" cy="1746.444" rx="97.471" ry="21.894" fill="#FFF9C4" style="stroke:#F9A825;stroke-width:0.5;"/><text x="267.707" y="1751.093" fill="#000" font-size="14" textLength="170.468">Supprimer un utilisateur</text></g><!--entity UC15--><g class="entity" data-qualified-name="Module Utilisateurs.Gestion des utilisateurs.UC15" id="ent0024" data-source-line="50"><ellipse cx="352.938" cy="1368.444" rx="86.368" ry="19.674" fill="#FFF9C4" style="stroke:#F9A825;stroke-width:0.5;"/><text x="280.204" y="1373.092" fill="#000" font-size="14" textLength="145.469">Lister les utilisateurs</text></g><!--entity UC16--><g class="entity" data-qualified-name="Module Utilisateurs.Gestion des utilisateurs.UC16" id="ent0025" data-source-line="51"><ellipse cx="352.937" cy="1442.441" rx="86.857" ry="19.771" fill="#FFF9C4" style="stroke:#F9A825;stroke-width:0.5;"/><text x="279.643" y="1447.09" fill="#000" font-size="14" textLength="146.59">Activer un utilisateur</text></g><!--entity UC17--><g class="entity" data-qualified-name="Module Utilisateurs.Gestion des utilisateurs.UC17" id="ent0026" data-source-line="52"><ellipse cx="352.939" cy="1519.438" rx="98.289" ry="22.058" fill="#FFF9C4" style="stroke:#F9A825;stroke-width:0.5;"/><text x="266.799" y="1524.086" fill="#000" font-size="14" textLength="172.279">Désactiver un utilisateur</text></g><!--entity UC18--><g class="entity" data-qualified-name="Module Utilisateurs.Journal d.audit.UC18" id="ent0028" data-source-line="57"><ellipse cx="775.962" cy="625.436" rx="82.682" ry="18.936" fill="#FFF9C4" style="stroke:#F9A825;stroke-width:0.5;"/><text x="707.483" y="630.085" fill="#000" font-size="14" textLength="136.958">Consulter le journal</text></g><!--entity UC19--><g class="entity" data-qualified-name="Module Utilisateurs.Journal d.audit.UC19" id="ent0029" data-source-line="58"><ellipse cx="352.94" cy="594.442" rx="71.96" ry="16.792" fill="#FFF9C4" style="stroke:#F9A825;stroke-width:0.5;"/><text x="297.302" y="599.09" fill="#000" font-size="14" textLength="111.275">Filtrer le journal</text></g><!--entity UC20--><g class="entity" data-qualified-name="Module Utilisateurs.Journal d.audit.UC20" id="ent0030" data-source-line="59"><ellipse cx="352.944" cy="669.445" rx="79.724" ry="18.345" fill="#FFF9C4" style="stroke:#F9A825;stroke-width:0.5;"/><text x="287.931" y="674.093" fill="#000" font-size="14" textLength="130.026">Exporter le journal</text></g><!--entity admin--><g class="entity" data-qualified-name="admin" id="ent0001" data-source-line="12"><ellipse cx="58.302" cy="1133.8" rx="8" ry="8" fill="#E3F2FD" style="stroke:#1565C0;stroke-width:0.5;"/><path d="M58.302,1141.8 L58.302,1168.8 M45.302,1149.8 L71.302,1149.8 M58.302,1168.8 L45.302,1183.8 M58.302,1168.8 L71.302,1183.8" style="stroke:#1565C0;stroke-width:0.5;" fill="none"/><text x="6" y="1198.295" fill="#000" font-size="14" textLength="104.604">Administrateur</text></g><!--entity user--><g class="entity" data-qualified-name="user" id="ent0002" data-source-line="13"><ellipse cx="58.305" cy="143.8" rx="8" ry="8" fill="#E3F2FD" style="stroke:#1565C0;stroke-width:0.5;"/><path d="M58.305,151.8 L58.305,178.8 M45.305,159.8 L71.305,159.8 M58.305,178.8 L45.305,193.8 M58.305,178.8 L71.305,193.8" style="stroke:#1565C0;stroke-width:0.5;" fill="none"/><text x="22.3" y="208.295" fill="#000" font-size="14" textLength="72.01">Utilisateur</text></g><!--entity system--><g class="entity" data-qualified-name="system" id="ent0003" data-source-line="14"><ellipse cx="58.3" cy="1542.8" rx="8" ry="8" fill="#E3F2FD" style="stroke:#1565C0;stroke-width:0.5;"/><path d="M58.3,1550.8 L58.3,1577.8 M45.3,1558.8 L71.3,1558.8 M58.3,1577.8 L45.3,1592.8 M58.3,1577.8 L71.3,1592.8" style="stroke:#1565C0;stroke-width:0.5;" fill="none"/><text x="27.89" y="1607.295" fill="#000" font-size="14" textLength="60.819">Système</text></g><!--link user to UC01--><g class="link" data-entity-1="ent0002" data-entity-2="ent0006" id="lnk31" data-source-line="64" data-link-type="dependency"><path d="M94.6,181.65 C147.43,193.92 242.22,215.948 300.8,229.558" style="stroke:#181818;stroke-width:1;" fill="none" id="user-to-UC01"/><polygon points="305.67,230.69,297.809,224.757,300.8,229.558,295.998,232.549,305.67,230.69" fill="#181818" style="stroke:#181818;stroke-width:1;stroke-linejoin:miter;stroke-miterlimit:10;"/></g><!--link user to UC02--><g class="link" data-entity-1="ent0002" data-entity-2="ent0007" id="lnk32" data-source-line="65" data-link-type="dependency"><path d="M94.57,205.08 C121.53,227.63 160.58,256.94 199.6,274.44 C227.91,287.15 256.45,294.401 284.79,299.521" style="stroke:#181818;stroke-width:1;" fill="none" id="user-to-UC02"/><polygon points="289.71,300.41,281.565,294.874,284.79,299.521,280.142,302.746,289.71,300.41" fill="#181818" style="stroke:#181818;stroke-width:1;stroke-linejoin:miter;stroke-miterlimit:10;"/></g><!--link user to UC03--><g class="link" data-entity-1="ent0002" data-entity-2="ent0009" id="lnk33" data-source-line="66" data-link-type="dependency"><path d="M94.66,157.03 C194.5,113.38 482.93,6 663.27,131.44 C761.19,199.56 773.318,359.132 774.698,411.302" style="stroke:#181818;stroke-width:1;" fill="none" id="user-to-UC03"/><polygon points="774.83,416.3,778.591,407.197,774.698,411.302,770.593,407.409,774.83,416.3" fill="#181818" style="stroke:#181818;stroke-width:1;stroke-linejoin:miter;stroke-miterlimit:10;"/></g><!--link user to UC04--><g class="link" data-entity-1="ent0002" data-entity-2="ent0010" id="lnk34" data-source-line="67" data-link-type="dependency"><path d="M87.32,211.99 C102.57,232.45 122.06,257.76 140.6,279.44 C165.32,308.35 170.06,317.48 199.6,341.44 C234.48,369.73 274.144,393.622 305.884,411.162" style="stroke:#181818;stroke-width:1;" fill="none" id="user-to-UC04"/><polygon points="310.26,413.58,304.317,405.726,305.884,411.162,300.448,412.728,310.26,413.58" fill="#181818" style="stroke:#181818;stroke-width:1;stroke-linejoin:miter;stroke-miterlimit:10;"/></g><!--link admin to UC05--><g class="link" data-entity-1="ent0001" data-entity-2="ent0012" id="lnk35" data-source-line="69" data-link-type="dependency"><path d="M60.94,1125.15 C65.41,1073.64 81.75,983.53 140.6,940.44 C186.83,906.61 250.269,909.786 296.629,918.116" style="stroke:#181818;stroke-width:1;" fill="none" id="admin-to-UC05"/><polygon points="301.55,919,293.399,913.471,296.629,918.116,291.984,921.345,301.55,919" fill="#181818" style="stroke:#181818;stroke-width:1;stroke-linejoin:miter;stroke-miterlimit:10;"/></g><!--link admin to UC06--><g class="link" data-entity-1="ent0001" data-entity-2="ent0013" id="lnk36" data-source-line="70" data-link-type="dependency"><path d="M59.76,1124.81 C62.65,1067.61 76.88,960.96 140.6,903.44 C176.04,871.46 223.61,860.986 267.45,858.206" style="stroke:#181818;stroke-width:1;" fill="none" id="admin-to-UC06"/><polygon points="272.44,857.89,263.205,854.468,267.45,858.206,263.711,862.452,272.44,857.89" fill="#181818" style="stroke:#181818;stroke-width:1;stroke-linejoin:miter;stroke-miterlimit:10;"/></g><!--link admin to UC07--><g class="link" data-entity-1="ent0001" data-entity-2="ent0014" id="lnk37" data-source-line="71" data-link-type="dependency"><path d="M74.18,1124.91 C87.28,1096.36 109.19,1058.99 140.6,1038.44 C176.94,1014.68 219.105,1005.699 259.645,1002.539" style="stroke:#181818;stroke-width:1;" fill="none" id="admin-to-UC07"/><polygon points="264.63,1002.15,255.346,998.862,259.645,1002.539,255.968,1006.837,264.63,1002.15" fill="#181818" style="stroke:#181818;stroke-width:1;stroke-linejoin:miter;stroke-miterlimit:10;"/></g><!--link admin to UC08--><g class="link" data-entity-1="ent0001" data-entity-2="ent0015" id="lnk38" data-source-line="72" data-link-type="dependency"><path d="M61.14,1125.2 C65.8,1064.35 82.3,944.14 140.6,863.44 C171.91,820.12 225.611,802.769 273.201,795.259" style="stroke:#181818;stroke-width:1;" fill="none" id="admin-to-UC08"/><polygon points="278.14,794.48,268.627,791.932,273.201,795.259,269.874,799.834,278.14,794.48" fill="#181818" style="stroke:#181818;stroke-width:1;stroke-linejoin:miter;stroke-miterlimit:10;"/></g><!--link admin to UC09--><g class="link" data-entity-1="ent0001" data-entity-2="ent0017" id="lnk39" data-source-line="73" data-link-type="dependency"><path d="M110.88,1144.46 C120.65,1141.39 130.86,1138.54 140.6,1136.44 C187.84,1126.27 237.093,1121.105 278.783,1118.135" style="stroke:#181818;stroke-width:1;" fill="none" id="admin-to-UC09"/><polygon points="283.77,1117.78,274.509,1114.43,278.783,1118.135,275.077,1122.409,283.77,1117.78" fill="#181818" style="stroke:#181818;stroke-width:1;stroke-linejoin:miter;stroke-miterlimit:10;"/></g><!--link admin to UC10--><g class="link" data-entity-1="ent0001" data-entity-2="ent0018" id="lnk40" data-source-line="74" data-link-type="dependency"><path d="M110.73,1183.26 C120.51,1186.25 130.77,1188.85 140.6,1190.44 C187.35,1198 235.657,1196.833 277.037,1193.403" style="stroke:#181818;stroke-width:1;" fill="none" id="admin-to-UC10"/><polygon points="282.02,1192.99,272.72,1189.747,277.037,1193.403,273.381,1197.72,282.02,1192.99" fill="#181818" style="stroke:#181818;stroke-width:1;stroke-linejoin:miter;stroke-miterlimit:10;"/></g><!--link admin to UC11--><g class="link" data-entity-1="ent0001" data-entity-2="ent0019" id="lnk41" data-source-line="75" data-link-type="dependency"><path d="M110.83,1189.6 C120.6,1194.15 130.83,1198.64 140.6,1202.44 C190.12,1221.75 244.041,1234.831 287.041,1243.601" style="stroke:#181818;stroke-width:1;" fill="none" id="admin-to-UC11"/><polygon points="291.94,1244.6,283.921,1238.882,287.041,1243.601,282.322,1246.721,291.94,1244.6" fill="#181818" style="stroke:#181818;stroke-width:1;stroke-linejoin:miter;stroke-miterlimit:10;"/></g><!--link admin to UC12--><g class="link" data-entity-1="ent0001" data-entity-2="ent0021" id="lnk42" data-source-line="76" data-link-type="dependency"><path d="M60.96,1201.93 C65.38,1268.74 81.55,1408.61 140.6,1508.44 C156.14,1534.72 177.83,1527.21 191.6,1554.44 C199.67,1570.39 187.83,1621 199.6,1634.44 C217.42,1654.79 239.474,1663.903 265.794,1668.483" style="stroke:#181818;stroke-width:1;" fill="none" id="admin-to-UC12"/><polygon points="270.72,1669.34,262.539,1663.856,265.794,1668.483,261.167,1671.738,270.72,1669.34" fill="#181818" style="stroke:#181818;stroke-width:1;stroke-linejoin:miter;stroke-miterlimit:10;"/></g><!--link admin to UC13--><g class="link" data-entity-1="ent0001" data-entity-2="ent0022" id="lnk43" data-source-line="77" data-link-type="dependency"><path d="M67.1,1201.96 C78.74,1255.13 103.34,1353.2 140.6,1430.44 C157.96,1466.42 177.01,1467.26 191.6,1504.44 C200.63,1527.44 182.98,1541.18 199.6,1559.44 C216.18,1577.66 235.196,1586.548 259.166,1591.808" style="stroke:#181818;stroke-width:1;" fill="none" id="admin-to-UC13"/><polygon points="264.05,1592.88,256.117,1587.044,259.166,1591.808,254.402,1594.858,264.05,1592.88" fill="#181818" style="stroke:#181818;stroke-width:1;stroke-linejoin:miter;stroke-miterlimit:10;"/></g><!--link admin to UC14--><g class="link" data-entity-1="ent0001" data-entity-2="ent0023" id="lnk44" data-source-line="78" data-link-type="dependency"><path d="M60.31,1201.93 C63.67,1279.19 78.16,1457.2 140.6,1590.44 C155.74,1622.75 177.13,1619.83 191.6,1652.44 C201.45,1674.62 183.41,1688.37 199.6,1706.44 C215.11,1723.76 232.286,1732.702 254.756,1738.642" style="stroke:#181818;stroke-width:1;" fill="none" id="admin-to-UC14"/><polygon points="259.59,1739.92,251.911,1733.753,254.756,1738.642,249.867,1741.487,259.59,1739.92" fill="#181818" style="stroke:#181818;stroke-width:1;stroke-linejoin:miter;stroke-miterlimit:10;"/></g><!--link admin to UC15--><g class="link" data-entity-1="ent0001" data-entity-2="ent0024" id="lnk45" data-source-line="79" data-link-type="dependency"><path d="M96.69,1201.84 C123.76,1228.39 162.04,1263.47 199.6,1289.44 C235.25,1314.1 275.046,1334.163 306.676,1348.693" style="stroke:#181818;stroke-width:1;" fill="none" id="admin-to-UC15"/><polygon points="311.22,1350.78,304.711,1343.388,306.676,1348.693,301.372,1350.658,311.22,1350.78" fill="#181818" style="stroke:#181818;stroke-width:1;stroke-linejoin:miter;stroke-miterlimit:10;"/></g><!--link admin to UC16--><g class="link" data-entity-1="ent0001" data-entity-2="ent0025" id="lnk46" data-source-line="80" data-link-type="dependency"><path d="M83.42,1201.97 C99.47,1227.47 121.1,1261.58 140.6,1291.44 C162.84,1325.5 175.79,1329.97 191.6,1367.44 C198.31,1383.35 187.59,1393.05 199.6,1405.44 C217.32,1423.71 237.515,1432.549 262.245,1437.709" style="stroke:#181818;stroke-width:1;" fill="none" id="admin-to-UC16"/><polygon points="267.14,1438.73,259.147,1432.976,262.245,1437.709,257.513,1440.807,267.14,1438.73" fill="#181818" style="stroke:#181818;stroke-width:1;stroke-linejoin:miter;stroke-miterlimit:10;"/></g><!--link admin to UC17--><g class="link" data-entity-1="ent0001" data-entity-2="ent0026" id="lnk47" data-source-line="81" data-link-type="dependency"><path d="M69.59,1201.88 C82.23,1245.22 106.3,1316.76 140.6,1371.44 C158.32,1399.69 177.14,1396.41 191.6,1426.44 C201.94,1447.91 183.68,1461.72 199.6,1479.44 C214.95,1496.53 231.802,1505.412 254.002,1511.382" style="stroke:#181818;stroke-width:1;" fill="none" id="admin-to-UC17"/><polygon points="258.83,1512.68,251.178,1506.48,254.002,1511.382,249.1,1514.206,258.83,1512.68" fill="#181818" style="stroke:#181818;stroke-width:1;stroke-linejoin:miter;stroke-miterlimit:10;"/></g><!--link admin to UC18--><g class="link" data-entity-1="ent0001" data-entity-2="ent0028" id="lnk48" data-source-line="82" data-link-type="dependency"><path d="M58.65,1125 C56.77,962.17 58.79,332.04 199.6,210.44 C292.32,130.38 361.16,165.77 475.23,210.44 C581.25,251.97 604.66,286.83 663.27,384.44 C690.24,429.36 672.18,450.49 693.27,498.44 C711.43,539.72 739.034,578.88 757.184,602.75" style="stroke:#181818;stroke-width:1;" fill="none" id="admin-to-UC18"/><polygon points="760.21,606.73,757.947,597.145,757.184,602.75,751.578,601.987,760.21,606.73" fill="#181818" style="stroke:#181818;stroke-width:1;stroke-linejoin:miter;stroke-miterlimit:10;"/></g><!--link admin to UC19--><g class="link" data-entity-1="ent0001" data-entity-2="ent0029" id="lnk49" data-source-line="83" data-link-type="dependency"><path d="M63.79,1124.86 C77.53,1013.87 122.83,697.62 199.6,633.44 C222.96,613.92 249.944,604.868 278.524,599.888" style="stroke:#181818;stroke-width:1;" fill="none" id="admin-to-UC19"/><polygon points="283.45,599.03,273.897,596.634,278.524,599.888,275.27,604.516,283.45,599.03" fill="#181818" style="stroke:#181818;stroke-width:1;stroke-linejoin:miter;stroke-miterlimit:10;"/></g><!--link admin to UC20--><g class="link" data-entity-1="ent0001" data-entity-2="ent0030" id="lnk50" data-source-line="84" data-link-type="dependency"><path d="M61.76,1125.04 C67.4,1058.62 85.35,919.62 140.6,817.44 C177.04,750.07 254.487,708.622 304.957,687.222" style="stroke:#181818;stroke-width:1;" fill="none" id="admin-to-UC20"/><polygon points="309.56,685.27,299.713,685.101,304.957,687.222,302.836,692.466,309.56,685.27" fill="#181818" style="stroke:#181818;stroke-width:1;stroke-linejoin:miter;stroke-miterlimit:10;"/></g><!--link UC04 to UC03--><g class="link" data-entity-1="ent0010" data-entity-2="ent0009" id="lnk51" data-source-line="87" data-link-type="dependency"><path d="M458.55,434.7 C537.09,434.14 637.22,433.426 704.29,432.946" style="stroke:#181818;stroke-width:1;stroke-dasharray:7,7;" fill="none" id="UC04-to-UC03"/><polygon points="709.29,432.91,700.262,428.975,704.29,432.946,700.319,436.974,709.29,432.91" fill="#181818" style="stroke:#181818;stroke-width:1;stroke-linejoin:miter;stroke-miterlimit:10;"/><text x="552.646" y="399.507" fill="#000" font-size="13" textLength="47.1">include</text><text x="519.518" y="414.64" fill="#000" font-size="13" textLength="113.356">(consulte le profil</text><text x="512.77" y="429.773" fill="#000" font-size="13" textLength="126.852">avant modification)</text></g><!--link UC19 to UC18--><g class="link" data-entity-1="ent0029" data-entity-2="ent0028" id="lnk52" data-source-line="90" data-link-type="dependency"><path d="M422.05,599.46 C497.1,604.99 612.633,613.493 691.563,619.303" style="stroke:#181818;stroke-width:1;stroke-dasharray:7,7;" fill="none" id="UC19-to-UC18"/><polygon points="696.55,619.67,687.868,615.02,691.563,619.303,687.281,622.999,696.55,619.67" fill="#181818" style="stroke:#181818;stroke-width:1;stroke-linejoin:miter;stroke-miterlimit:10;"/><text x="549.777" y="586.507" fill="#000" font-size="13" textLength="52.051">extends</text><text x="492.27" y="601.64" fill="#000" font-size="13" textLength="167.064">(améliore la consultation)</text></g><!--link UC20 to UC18--><g class="link" data-entity-1="ent0030" data-entity-2="ent0028" id="lnk53" data-source-line="91" data-link-type="dependency"><path d="M432.64,671.58 C495.46,672.03 585.53,669.9 663.27,657.44 C685.18,653.93 704.103,649.008 724.013,642.848" style="stroke:#181818;stroke-width:1;stroke-dasharray:7,7;" fill="none" id="UC20-to-UC18"/><polygon points="728.79,641.37,719.01,640.209,724.013,642.848,721.374,647.851,728.79,641.37" fill="#181818" style="stroke:#181818;stroke-width:1;stroke-linejoin:miter;stroke-miterlimit:10;"/><text x="549.792" y="638.507" fill="#000" font-size="13" textLength="52.051">extends</text><text x="489.27" y="653.64" fill="#000" font-size="13" textLength="173.094">(ajoute une fonctionnalité)</text></g><!--link system to UC18--><g class="link" data-entity-1="ent0003" data-entity-2="ent0028" id="lnk54" data-source-line="94" data-link-type="dependency"><path d="M69.75,1610.77 C86.79,1664.76 126.27,1761.12 199.6,1801.44 C306.95,1860.47 378.5,1876.61 475.23,1801.44 C670.71,1649.54 759.399,790.528 772.709,649.798" style="stroke:#181818;stroke-width:1;stroke-dasharray:7,7;" fill="none" id="system-to-UC18"/><polygon points="773.18,644.82,768.35,653.403,772.709,649.798,776.315,654.157,773.18,644.82" fill="#181818" style="stroke:#181818;stroke-width:1;stroke-linejoin:miter;stroke-miterlimit:10;"/><text x="311.94" y="1797.507" fill="#000" font-size="13" textLength="82.564">«enregistre»</text></g><!--link system to UC05--><g class="link" data-entity-1="ent0003" data-entity-2="ent0012" id="lnk55" data-source-line="95" data-link-type="dependency"><path d="M64.94,1533.86 C80.59,1427.66 124.47,1136.21 140.6,1095.44 C155.71,1057.28 176.86,1056.75 191.6,1018.44 C200.16,996.21 183.36,982.87 199.6,965.44 C219.84,943.74 245.679,935.016 274.289,931.406" style="stroke:#181818;stroke-width:1;stroke-dasharray:7,7;" fill="none" id="system-to-UC05"/><polygon points="279.25,930.78,269.82,927.938,274.289,931.406,270.822,935.875,279.25,930.78" fill="#181818" style="stroke:#181818;stroke-width:1;stroke-linejoin:miter;stroke-miterlimit:10;"/><text x="141.6" y="1014.507" fill="#000" font-size="13" textLength="49.461">«trace»</text></g><!--link system to UC06--><g class="link" data-entity-1="ent0003" data-entity-2="ent0013" id="lnk56" data-source-line="96" data-link-type="dependency"><path d="M65.05,1533.81 C74.67,1468.9 94.56,1333.82 110.6,1219.44 C124.43,1120.85 103.17,1089.7 140.6,997.44 C154.94,962.11 175.34,962.93 191.6,928.44 C197.86,915.19 189.17,906.74 199.6,896.44 C218.85,877.45 241.219,868.667 267.409,863.947" style="stroke:#181818;stroke-width:1;stroke-dasharray:7,7;" fill="none" id="system-to-UC06"/><polygon points="272.33,863.06,262.763,860.72,267.409,863.947,264.182,868.593,272.33,863.06" fill="#181818" style="stroke:#181818;stroke-width:1;stroke-linejoin:miter;stroke-miterlimit:10;"/><text x="141.6" y="924.507" fill="#000" font-size="13" textLength="49.461">«trace»</text></g><!--link system to UC07--><g class="link" data-entity-1="ent0003" data-entity-2="ent0014" id="lnk57" data-source-line="97" data-link-type="dependency"><path d="M71.21,1533.89 C95.25,1455.59 150.73,1272.12 191.6,1116.44 C195.55,1101.43 190.06,1094.69 199.6,1082.44 C223.86,1051.3 259.128,1032.957 292.028,1020.847" style="stroke:#181818;stroke-width:1;stroke-dasharray:7,7;" fill="none" id="system-to-UC07"/><polygon points="296.72,1019.12,286.892,1018.475,292.028,1020.847,289.656,1025.983,296.72,1019.12" fill="#181818" style="stroke:#181818;stroke-width:1;stroke-linejoin:miter;stroke-miterlimit:10;"/><text x="141.6" y="1112.507" fill="#000" font-size="13" textLength="49.461">«trace»</text></g><!--link system to UC12--><g class="link" data-entity-1="ent0003" data-entity-2="ent0021" id="lnk58" data-source-line="98" data-link-type="dependency"><path d="M89.04,1587.51 C117.02,1601.22 160.35,1621.26 199.6,1634.44 C228.46,1644.14 256.335,1651.174 284.065,1657.224" style="stroke:#181818;stroke-width:1;stroke-dasharray:7,7;" fill="none" id="system-to-UC12"/><polygon points="288.95,1658.29,281.009,1652.463,284.065,1657.224,279.304,1660.28,288.95,1658.29" fill="#181818" style="stroke:#181818;stroke-width:1;stroke-linejoin:miter;stroke-miterlimit:10;"/><text x="141.6" y="1607.507" fill="#000" font-size="13" textLength="49.461">«trace»</text></g><!--link system to UC13--><g class="link" data-entity-1="ent0003" data-entity-2="ent0022" id="lnk59" data-source-line="99" data-link-type="dependency"><path d="M88.97,1574.88 C130.53,1578.29 202.727,1584.212 262.767,1589.132" style="stroke:#181818;stroke-width:1;stroke-dasharray:7,7;" fill="none" id="system-to-UC13"/><polygon points="267.75,1589.54,259.107,1584.818,262.767,1589.132,258.453,1592.792,267.75,1589.54" fill="#181818" style="stroke:#181818;stroke-width:1;stroke-linejoin:miter;stroke-miterlimit:10;"/><text x="141.6" y="1575.507" fill="#000" font-size="13" textLength="49.461">«trace»</text></g><!--link system to UC14--><g class="link" data-entity-1="ent0003" data-entity-2="ent0023" id="lnk60" data-source-line="100" data-link-type="dependency"><path d="M89.13,1610.73 C115.05,1641.32 155.31,1682.84 199.6,1706.44 C222.41,1718.6 244.274,1726.038 268.924,1732.088" style="stroke:#181818;stroke-width:1;stroke-dasharray:7,7;" fill="none" id="system-to-UC14"/><polygon points="273.78,1733.28,265.993,1727.25,268.924,1732.088,264.086,1735.019,273.78,1733.28" fill="#181818" style="stroke:#181818;stroke-width:1;stroke-linejoin:miter;stroke-miterlimit:10;"/><text x="141.6" y="1662.507" fill="#000" font-size="13" textLength="49.461">«trace»</text></g><?plantuml-src bPRVRjem5CRlynH7tGNhHIiI_azTfIn0nLJM2SgkUcCbXdeDDhATgjNKzndFmOlj94wwc0GsAgJgvFpo-VFniPq6V3xXpsd0SEBVpFpfT0J3qHm2Vmx3nk9-SZkP-_UJkszm0TExuU9s1CN3qM8sn_TE6iQ9wLA35Y3Pwb53n2GDDHFSKK-CRuWaQzYGy8ciw5o_nXJIDE6hc9O0FzH2Va5g9KN2eq34GiA7KMliZOSLJCY8oXnnEzrEq2mX2qK3ecX5QpmU3u9s3LXM6m_yljTn79AE0sT-j6QSAIs9feay0wA0f8-A_4ApcAc_oKHHMUJchqhlVgzfbb0OqBNZl4yTpgOYIl1_IKATmIy707_P0i0DsjzGYAY243MYHfApM5lm4_r8kMPB5fe7wKe0b0RO9umwf2PH3e4vXL1mZczGOtyHDDqA4kss5Sf3wks_hNwNOidYgi4Rgh9ybC0cGoeEVmWcGI5IvCtmBPiA7b6G6d0ji04fzfjIjC3R9xarINN4BYPN1geO3kHkYquIdXE5XOwDuThZijI1tRtw9vkDPEiwicUJjzYcYCLbSmRidpJzeHHC_sFsKSPK9b-oK136mS3c_EKowoPBAoFTfatEgCR3f0vqJvfKUPCTdrfIsOwrgvliRNnqv1rUuXgwTMITQ_3smKhRXWszrsruQBBdWz9x7JVSRHKv-aBlfD9_5Odaf6Rt5uceGPA8wMgn1LT9RAO9FmrSMEZRw9Z5MjQ2UvqtUja8MIlfDRDPlJdcyeCPZJF_fbtISnqkBgxD2LcEF2jgML4Rxv7qjYZYZXrsxR1dXtqx75WXxXChTEtGiyEM7RRjq7RbsgvSsvLhkt9jLrZ3l7eJ7iQ9UYzVMWkul3GbWa_0qdH47_Z7C5_aT47C6V_0oJFX6W_owFtcEYzqHo-QyhAkEyXrtJxgqZGTATGbwzqsPaAYC85ya5mgzNdW9Mm9j99m2al1iqyOR12cTzlpQbke_7hFZ9ZhlQnwTKMvfAlqsu5UNzj0ivC1-5KHLdFT8xdUuPph7ScrZkJQvTmV?></g></svg>